<svg width="16" height="16" viewBox="0 0 16 16" fill="none" xmlns="http://www.w3.org/2000/svg">
<path fill-rule="evenodd" clip-rule="evenodd" d="M1.51821 5.28958C-0.239145 7.04693 -0.239145 9.89618 1.51821 11.6535C2.33295 12.4683 3.38357 12.9056 4.44994 12.9646C4.72566 12.9799 4.96155 12.7688 4.97683 12.4931C4.9921 12.2173 4.78097 11.9814 4.50525 11.9662C3.67506 11.9202 2.85941 11.5805 2.22532 10.9464C0.858487 9.5796 0.858487 7.36352 2.22532 5.99668L4.11094 4.11106C5.47778 2.74423 7.69385 2.74423 9.06069 4.11106C10.4275 5.4779 10.4275 7.69398 9.06069 9.06081L8.11788 10.0036C7.92262 10.1989 7.92262 10.5155 8.11788 10.7107C8.31314 10.906 8.62972 10.906 8.82499 10.7107L9.76779 9.76792C11.5252 8.01056 11.5252 5.16132 9.76779 3.40396C8.01043 1.6466 5.16119 1.6466 3.40383 3.40396L1.51821 5.28958Z" fill="#193DB1"/>
<path opacity="0.5" d="M6.93934 11.889C5.57251 10.5222 5.57251 8.3061 6.93934 6.93927L7.88215 5.99646C8.07741 5.80119 8.07741 5.48461 7.88215 5.28935C7.68689 5.09409 7.37031 5.09409 7.17504 5.28935L6.23223 6.23216C4.47488 7.98952 4.47488 10.8388 6.23223 12.5961C7.98959 14.3535 10.8388 14.3535 12.5962 12.5961L14.4818 10.7105C16.2392 8.95314 16.2392 6.1039 14.4818 4.34654C13.6671 3.5318 12.6165 3.09452 11.5501 3.03545C11.2744 3.02017 11.0385 3.23131 11.0232 3.50703C11.0079 3.78275 11.2191 4.01864 11.4948 4.03392C12.325 4.0799 13.1406 4.41956 13.7747 5.05365C15.1415 6.42048 15.1415 8.63656 13.7747 10.0034L11.8891 11.889C10.5223 13.2558 8.30618 13.2558 6.93934 11.889Z" fill="#193DB1"/>
</svg>
