<svg width="36" height="36" viewBox="0 0 36 36" fill="none" xmlns="http://www.w3.org/2000/svg">
<path d="M4.5 18C4.5 16.2272 4.84919 14.4717 5.52763 12.8338C6.20606 11.1959 7.20047 9.70765 8.45406 8.45406C9.70765 7.20047 11.1959 6.20607 12.8338 5.52763C14.4717 4.84919 16.2272 4.5 18 4.5C19.7728 4.5 21.5283 4.84919 23.1662 5.52763C24.8041 6.20607 26.2923 7.20047 27.5459 8.45406C28.7995 9.70765 29.7939 11.1959 30.4724 12.8338C31.1508 14.4717 31.5 16.2272 31.5 18C31.5 21.5804 30.0777 25.0142 27.5459 27.5459C25.0142 30.0777 21.5804 31.5 18 31.5C14.4196 31.5 10.9858 30.0777 8.45406 27.5459C5.92232 25.0142 4.5 21.5804 4.5 18Z" fill="#0E5BFF"/>
<path fill-rule="evenodd" clip-rule="evenodd" d="M18 27.5625C20.5361 27.5625 22.9684 26.555 24.7617 24.7617C26.555 22.9684 27.5625 20.5361 27.5625 18C27.5625 15.4639 26.555 13.0316 24.7617 11.2383C22.9684 9.44497 20.5361 8.4375 18 8.4375C15.4639 8.4375 13.0316 9.44497 11.2383 11.2383C9.44497 13.0316 8.4375 15.4639 8.4375 18C8.4375 20.5361 9.44497 22.9684 11.2383 24.7617C13.0316 26.555 15.4639 27.5625 18 27.5625ZM16.875 15.1875C15.9435 15.1875 15.1875 15.9435 15.1875 16.875V19.125C15.1875 20.0565 15.9435 20.8125 16.875 20.8125H19.125C20.0565 20.8125 20.8125 20.0565 20.8125 19.125V16.875C20.8125 15.9435 20.0565 15.1875 19.125 15.1875H16.875Z" fill="white"/>
</svg>
