<svg width="18" height="18" viewBox="0 0 18 18" fill="none" xmlns="http://www.w3.org/2000/svg">
<path d="M14.25 9C14.25 9.41421 13.9142 9.75 13.5 9.75C13.0858 9.75 12.75 9.41421 12.75 9C12.75 8.58579 13.0858 8.25 13.5 8.25C13.9142 8.25 14.25 8.58579 14.25 9Z" fill="#368DFF"/>
<path fill-rule="evenodd" clip-rule="evenodd" d="M7.45769 2.4375H9.79231C11.1706 2.43749 12.2624 2.43748 13.1168 2.55235C13.9961 2.67057 14.7078 2.91966 15.2691 3.48093C15.9624 4.17422 16.1833 5.10272 16.2635 6.30756C16.6964 6.49808 17.0233 6.90098 17.0594 7.41134C17.0626 7.45649 17.0625 7.50515 17.0625 7.55026C17.0625 7.55437 17.0625 7.55845 17.0625 7.5625V10.4375C17.0625 10.4415 17.0625 10.4456 17.0625 10.4497C17.0625 10.4949 17.0626 10.5435 17.0594 10.5887C17.0233 11.099 16.6964 11.5019 16.2635 11.6924C16.1833 12.8973 15.9624 13.8258 15.2691 14.5191C14.7078 15.0803 13.9961 15.3294 13.1168 15.4476C12.2624 15.5625 11.1706 15.5625 9.79231 15.5625H7.45769C6.07937 15.5625 4.98764 15.5625 4.13323 15.4476C3.25392 15.3294 2.54221 15.0803 1.98093 14.5191C1.41966 13.9578 1.17057 13.2461 1.05235 12.3668C0.937479 11.5124 0.937488 10.4206 0.9375 9.04231V8.95769C0.937488 7.57937 0.937479 6.48764 1.05235 5.63323C1.17057 4.75392 1.41966 4.04221 1.98093 3.48093C2.5422 2.91966 3.25392 2.67057 4.13323 2.55235C4.98764 2.43748 6.07937 2.43749 7.45769 2.4375ZM15.1259 11.8125H13.6731C12.0642 11.8125 10.6875 10.5918 10.6875 9C10.6875 7.40817 12.0642 6.1875 13.6731 6.1875H15.1259C15.0406 5.18141 14.8475 4.65033 14.4736 4.27643C14.1562 3.95902 13.7214 3.76877 12.9669 3.66732C12.1961 3.5637 11.1801 3.5625 9.75 3.5625H7.5C6.06988 3.5625 5.05388 3.5637 4.28314 3.66732C3.52857 3.76877 3.09383 3.95902 2.77643 4.27643C2.45902 4.59384 2.26877 5.02857 2.16732 5.78314C2.0637 6.55389 2.0625 7.56989 2.0625 9C2.0625 10.4301 2.0637 11.4461 2.16732 12.2169C2.26877 12.9714 2.45902 13.4062 2.77643 13.7236C3.09384 14.041 3.52857 14.2312 4.28314 14.3327C5.05389 14.4363 6.06989 14.4375 7.5 14.4375H9.75C11.1801 14.4375 12.1961 14.4363 12.9669 14.3327C13.7214 14.2312 14.1562 14.041 14.4736 13.7236C14.8475 13.3497 15.0406 12.8186 15.1259 11.8125ZM15.6926 7.31267C15.6774 7.31251 15.6574 7.3125 15.625 7.3125H13.6731C12.6055 7.3125 11.8125 8.10655 11.8125 9C11.8125 9.89345 12.6055 10.6875 13.6731 10.6875H15.625C15.6574 10.6875 15.6774 10.6875 15.6926 10.6873C15.702 10.6872 15.7069 10.6871 15.7093 10.687L15.711 10.6869C15.8656 10.6775 15.9321 10.5732 15.9371 10.5104C15.9371 10.5104 15.9372 10.5057 15.9373 10.4989C15.9375 10.4856 15.9375 10.4679 15.9375 10.4375V7.5625C15.9375 7.53212 15.9375 7.51438 15.9373 7.50107C15.9372 7.49429 15.9371 7.48957 15.9371 7.48957C15.932 7.42682 15.8655 7.32248 15.711 7.31307C15.711 7.31307 15.7073 7.31282 15.6926 7.31267ZM5.25 6.1875C5.56066 6.1875 5.8125 6.43934 5.8125 6.75V11.25C5.8125 11.5607 5.56066 11.8125 5.25 11.8125C4.93934 11.8125 4.6875 11.5607 4.6875 11.25V6.75C4.6875 6.43934 4.93934 6.1875 5.25 6.1875Z" fill="#368DFF"/>
</svg>
