<svg width="18" height="19" viewBox="0 0 18 19" fill="none" xmlns="http://www.w3.org/2000/svg">
<path d="M14.25 9.5C14.25 9.91421 13.9142 10.25 13.5 10.25C13.0858 10.25 12.75 9.91421 12.75 9.5C12.75 9.08579 13.0858 8.75 13.5 8.75C13.9142 8.75 14.25 9.08579 14.25 9.5Z" fill="#9B9B9B"/>
<path fill-rule="evenodd" clip-rule="evenodd" d="M7.45769 2.9375H9.79231C11.1706 2.93749 12.2624 2.93748 13.1168 3.05235C13.9961 3.17057 14.7078 3.41966 15.2691 3.98093C15.9624 4.67422 16.1833 5.60272 16.2635 6.80756C16.6964 6.99808 17.0233 7.40098 17.0594 7.91134C17.0626 7.95649 17.0625 8.00515 17.0625 8.05026C17.0625 8.05437 17.0625 8.05845 17.0625 8.0625V10.9375C17.0625 10.9415 17.0625 10.9456 17.0625 10.9497C17.0625 10.9949 17.0626 11.0435 17.0594 11.0887C17.0233 11.599 16.6964 12.0019 16.2635 12.1924C16.1833 13.3973 15.9624 14.3258 15.2691 15.0191C14.7078 15.5803 13.9961 15.8294 13.1168 15.9476C12.2624 16.0625 11.1706 16.0625 9.79231 16.0625H7.45769C6.07937 16.0625 4.98764 16.0625 4.13323 15.9476C3.25392 15.8294 2.54221 15.5803 1.98093 15.0191C1.41966 14.4578 1.17057 13.7461 1.05235 12.8668C0.937479 12.0124 0.937488 10.9206 0.9375 9.54231V9.45769C0.937488 8.07937 0.937479 6.98764 1.05235 6.13323C1.17057 5.25392 1.41966 4.54221 1.98093 3.98093C2.5422 3.41966 3.25392 3.17057 4.13323 3.05235C4.98764 2.93748 6.07937 2.93749 7.45769 2.9375ZM15.1259 12.3125H13.6731C12.0642 12.3125 10.6875 11.0918 10.6875 9.5C10.6875 7.90817 12.0642 6.6875 13.6731 6.6875H15.1259C15.0406 5.68141 14.8475 5.15033 14.4736 4.77643C14.1562 4.45902 13.7214 4.26877 12.9669 4.16732C12.1961 4.0637 11.1801 4.0625 9.75 4.0625H7.5C6.06988 4.0625 5.05388 4.0637 4.28314 4.16732C3.52857 4.26877 3.09383 4.45902 2.77643 4.77643C2.45902 5.09384 2.26877 5.52857 2.16732 6.28314C2.0637 7.05389 2.0625 8.06989 2.0625 9.5C2.0625 10.9301 2.0637 11.9461 2.16732 12.7169C2.26877 13.4714 2.45902 13.9062 2.77643 14.2236C3.09384 14.541 3.52857 14.7312 4.28314 14.8327C5.05389 14.9363 6.06989 14.9375 7.5 14.9375H9.75C11.1801 14.9375 12.1961 14.9363 12.9669 14.8327C13.7214 14.7312 14.1562 14.541 14.4736 14.2236C14.8475 13.8497 15.0406 13.3186 15.1259 12.3125ZM15.6926 7.81267C15.6774 7.81251 15.6574 7.8125 15.625 7.8125H13.6731C12.6055 7.8125 11.8125 8.60655 11.8125 9.5C11.8125 10.3935 12.6055 11.1875 13.6731 11.1875H15.625C15.6574 11.1875 15.6774 11.1875 15.6926 11.1873C15.702 11.1872 15.7069 11.1871 15.7093 11.187L15.711 11.1869C15.8656 11.1775 15.9321 11.0732 15.9371 11.0104C15.9371 11.0104 15.9372 11.0057 15.9373 10.9989C15.9375 10.9856 15.9375 10.9679 15.9375 10.9375V8.0625C15.9375 8.03212 15.9375 8.01438 15.9373 8.00107C15.9372 7.99429 15.9371 7.98957 15.9371 7.98957C15.932 7.92682 15.8655 7.82248 15.711 7.81307C15.711 7.81307 15.7073 7.81282 15.6926 7.81267ZM5.25 6.6875C5.56066 6.6875 5.8125 6.93934 5.8125 7.25V11.75C5.8125 12.0607 5.56066 12.3125 5.25 12.3125C4.93934 12.3125 4.6875 12.0607 4.6875 11.75V7.25C4.6875 6.93934 4.93934 6.6875 5.25 6.6875Z" fill="#9B9B9B"/>
</svg>
