<svg width="14" height="14" viewBox="0 0 14 14" fill="none" xmlns="http://www.w3.org/2000/svg">
<path d="M12.249 5.83317C12.2419 4.56441 12.1857 3.87729 11.7374 3.42907C11.2249 2.9165 10.3999 2.9165 8.75 2.9165H7C5.35008 2.9165 4.52513 2.9165 4.01256 3.42907C3.5 3.94163 3.5 4.76659 3.5 6.4165V9.33317C3.5 10.9831 3.5 11.808 4.01256 12.3206C4.52513 12.8332 5.35008 12.8332 7 12.8332H8.75C10.3999 12.8332 11.2249 12.8332 11.7374 12.3206C12.25 11.808 12.25 10.9831 12.25 9.33317V8.74984" stroke="#5B5B5B" stroke-linecap="round"/>
<path d="M1.75 5.83317V9.33317C1.75 10.2997 2.5335 11.0832 3.5 11.0832M10.5 2.9165C10.5 1.95001 9.7165 1.1665 8.75 1.1665H6.41667C4.21678 1.1665 3.11684 1.1665 2.43342 1.84992C2.05239 2.23094 1.8838 2.74144 1.8092 3.49984" stroke="#5B5B5B" stroke-linecap="round"/>
</svg>
