<svg width="25" height="24" viewBox="0 0 25 24" fill="none" xmlns="http://www.w3.org/2000/svg">
<path fill-rule="evenodd" clip-rule="evenodd" d="M21.7036 7C21.7036 7.41421 21.3678 7.75 20.9536 7.75L4.95361 7.75C4.5394 7.75 4.20361 7.41421 4.20361 7C4.20361 6.58579 4.5394 6.25 4.95361 6.25L20.9536 6.25C21.3678 6.25 21.7036 6.58579 21.7036 7Z" fill="#9B9B9B"/>
<path fill-rule="evenodd" clip-rule="evenodd" d="M21.7036 17C21.7036 17.4142 21.3678 17.75 20.9536 17.75L4.95361 17.75C4.5394 17.75 4.20361 17.4142 4.20361 17C4.20361 16.5858 4.5394 16.25 4.95361 16.25L20.9536 16.25C21.3678 16.25 21.7036 16.5858 21.7036 17Z" fill="#9B9B9B"/>
</svg>
