   <svg width="10" height="10" viewBox="0 0 10 10" fill="none"
                                xmlns="http://www.w3.org/2000/svg">
                                <path fill-rule="evenodd" clip-rule="evenodd"
                                    d="M9.00934 5.4831C9.0704 5.62191 9.04367 5.7837 8.94119 5.89549L6.1368 8.95483C5.99408 9.11052 5.75218 9.12104 5.59649 8.97832C5.4408 8.83561 5.43028 8.5937 5.573 8.43801L7.78997 6.0195L0.50105 6.0195C0.289847 6.0195 0.118632 5.84829 0.118632 5.63708C0.118632 5.42588 0.289847 5.25467 0.50105 5.25467L8.65929 5.25467C8.81095 5.25467 8.94827 5.34428 9.00934 5.4831ZM9.04171 3.59752C9.04171 3.80873 8.8705 3.97994 8.65929 3.97994L0.50105 3.97994C0.349396 3.97994 0.21207 3.89032 0.151004 3.75151C0.0899395 3.61269 0.116673 3.45091 0.219149 3.33911L3.02354 0.279772C3.16626 0.124083 3.40817 0.113565 3.56385 0.256281C3.71954 0.398996 3.73006 0.640901 3.58735 0.79659L1.37038 3.2151L8.65929 3.2151C8.8705 3.2151 9.04171 3.38632 9.04171 3.59752Z"
                                    fill="#2B2B2B" />
                            </svg>