<svg width="106" height="23" viewBox="0 0 106 23" fill="none" xmlns="http://www.w3.org/2000/svg">
<path d="M13.3907 15.46V17.5H0.430656V0.699999H2.71066V15.46H13.3907ZM21.6795 17.692C19.5355 17.692 17.8635 17.148 16.6635 16.06C15.4795 14.956 14.8875 13.428 14.8875 11.476V11.452C14.8875 9.532 15.4795 8.036 16.6635 6.964C17.8635 5.876 19.5355 5.332 21.6795 5.332C23.8235 5.332 25.4955 5.876 26.6955 6.964C27.9115 8.036 28.5195 9.532 28.5195 11.452V11.476C28.5195 13.428 27.9115 14.956 26.6955 16.06C25.4955 17.148 23.8235 17.692 21.6795 17.692ZM21.6795 15.868C23.1515 15.868 24.3035 15.484 25.1355 14.716C25.9675 13.932 26.3835 12.852 26.3835 11.476V11.452C26.3835 10.092 25.9675 9.036 25.1355 8.284C24.3035 7.532 23.1515 7.156 21.6795 7.156C20.2075 7.156 19.0635 7.532 18.2475 8.284C17.4315 9.036 17.0235 10.092 17.0235 11.452V11.476C17.0235 12.852 17.4315 13.932 18.2475 14.716C19.0795 15.484 20.2235 15.868 21.6795 15.868ZM37.3592 17.692C35.2152 17.692 33.5432 17.148 32.3432 16.06C31.1592 14.956 30.5672 13.428 30.5672 11.476V11.452C30.5672 9.532 31.1592 8.036 32.3432 6.964C33.5432 5.876 35.2152 5.332 37.3592 5.332C39.5032 5.332 41.1752 5.876 42.3752 6.964C43.5912 8.036 44.1992 9.532 44.1992 11.452V11.476C44.1992 13.428 43.5912 14.956 42.3752 16.06C41.1752 17.148 39.5032 17.692 37.3592 17.692ZM37.3592 15.868C38.8312 15.868 39.9832 15.484 40.8152 14.716C41.6472 13.932 42.0632 12.852 42.0632 11.476V11.452C42.0632 10.092 41.6472 9.036 40.8152 8.284C39.9832 7.532 38.8312 7.156 37.3592 7.156C35.8872 7.156 34.7432 7.532 33.9272 8.284C33.1112 9.036 32.7032 10.092 32.7032 11.452V11.476C32.7032 12.852 33.1112 13.932 33.9272 14.716C34.7592 15.484 35.9032 15.868 37.3592 15.868ZM54.2628 5.308C55.9268 5.308 57.2308 5.716 58.1748 6.532C59.1348 7.348 59.6148 8.516 59.6148 10.036V17.5H57.5508V10.252C57.5508 9.26 57.2468 8.492 56.6388 7.948C56.0308 7.404 55.1748 7.132 54.0708 7.132C52.4548 7.132 51.1748 7.5 50.2308 8.236C49.3028 8.956 48.8388 9.988 48.8388 11.332V11.836V17.5H46.7748V5.5H48.5268V7.684C49.0868 6.916 49.8548 6.332 50.8308 5.932C51.8228 5.516 52.9668 5.308 54.2628 5.308ZM69.4112 5.308C71.5232 5.308 73.1712 5.86 74.3552 6.964C75.5552 8.052 76.1552 9.564 76.1552 11.5V11.524C76.1552 13.46 75.5552 14.972 74.3552 16.06C73.1712 17.132 71.5232 17.668 69.4112 17.668C68.3872 17.668 67.4672 17.524 66.6512 17.236C65.8512 16.948 65.1872 16.524 64.6592 15.964V22.3H62.5952V5.5H64.3952V7.372C64.9232 6.7 65.6112 6.188 66.4592 5.836C67.3072 5.484 68.2912 5.308 69.4112 5.308ZM74.0192 11.524C74.0192 10.148 73.6032 9.076 72.7712 8.308C71.9552 7.524 70.8112 7.132 69.3392 7.132C67.8672 7.132 66.7152 7.516 65.8832 8.284C65.0672 9.036 64.6592 10.1 64.6592 11.476V11.572C64.6592 12.916 65.0672 13.964 65.8832 14.716C66.7152 15.468 67.8672 15.844 69.3392 15.844C70.8112 15.844 71.9552 15.468 72.7712 14.716C73.6032 13.964 74.0192 12.908 74.0192 11.548V11.524ZM84.6956 5.332C88.7436 5.332 90.7676 6.74 90.7676 9.556V17.5H88.9196V15.868C87.7676 17.068 85.9596 17.668 83.4956 17.668C81.8476 17.668 80.5436 17.34 79.5836 16.684C78.6236 16.028 78.1436 15.148 78.1436 14.044V14.02C78.1436 12.948 78.5356 12.124 79.3196 11.548C80.1196 10.972 81.3836 10.636 83.1116 10.54L88.7036 10.252V9.556C88.7036 8.692 88.3756 8.076 87.7196 7.708C87.0636 7.324 86.0556 7.132 84.6956 7.132C83.3836 7.132 82.3596 7.324 81.6236 7.708C80.8876 8.092 80.5196 8.62 80.5196 9.292V9.388H78.5276V9.292C78.5276 8.044 79.0716 7.076 80.1596 6.388C81.2476 5.684 82.7596 5.332 84.6956 5.332ZM83.7596 15.892C85.3116 15.892 86.5196 15.596 87.3836 15.004C88.2636 14.396 88.7036 13.564 88.7036 12.508V11.836L83.2316 12.076C81.2956 12.172 80.3276 12.78 80.3276 13.9V13.924C80.3276 14.532 80.6316 15.012 81.2396 15.364C81.8476 15.716 82.6876 15.892 83.7596 15.892ZM105.086 5.5L99.3257 18.82C98.7817 20.068 98.1017 20.988 97.2857 21.58C96.4697 22.188 95.4697 22.492 94.2857 22.492C93.7897 22.492 93.2777 22.444 92.7497 22.348V20.62C93.1817 20.716 93.5977 20.764 93.9977 20.764C94.8617 20.764 95.5577 20.564 96.0857 20.164C96.6137 19.764 97.0937 19.092 97.5257 18.148L97.6937 17.788L92.2697 5.5H94.4057L98.6777 15.412L102.974 5.5H105.086Z" fill="#193DB1"/>
</svg>
