<svg width="36" height="36" viewBox="0 0 36 36" fill="none" xmlns="http://www.w3.org/2000/svg">
<path d="M29.442 17.9836L30.657 16.5886L30.1275 16.2106L30.972 15.4531L30.321 14.9716L31.1655 14.3521L30.621 13.9381L31.5 9.7381L30.1635 5.8501M30.1635 5.8501L21.579 8.9656H14.421L5.835 5.8501L4.5 9.7396L5.397 13.9396L4.8345 14.3521L5.6955 14.9716L5.046 15.4531L5.889 16.2106L5.3625 16.5886L6.576 17.9836L4.728 23.5591L6.435 29.2546L12.4335 27.6376L13.5945 28.5676L15.969 30.1501H20.031L22.407 28.5661L23.5665 27.6376L29.5815 29.2546L31.3065 23.5591L29.442 17.9836" fill="#F5841F"/>
<path d="M30.1635 5.8501L19.6275 13.4401L21.579 8.9656L30.1635 5.8501ZM5.83653 5.8501L16.2855 13.5091L14.421 8.9641L5.83653 5.8501ZM26.382 23.4556L23.5665 27.6196L29.5815 29.2381L31.3065 23.5411L26.382 23.4556ZM4.72803 23.5411L6.43503 29.2381L12.4335 27.6196L9.63603 23.4556L4.72803 23.5411Z" fill="#E27625"/>
<path d="M12.117 16.3993L10.446 18.8593L16.3905 19.1188L16.197 12.8893L12.117 16.3993ZM23.901 16.3993L19.7505 12.8203L19.6275 19.1188L25.572 18.8608L23.901 16.3993ZM12.4335 27.6208L16.0395 25.9333L12.9255 23.5933L12.4335 27.6208ZM19.98 25.9348L23.5665 27.6208L23.0745 23.5933L19.98 25.9348Z" fill="#E27625"/>
<path d="M23.5666 27.6211L19.9786 25.9336L20.2786 28.2061L20.2426 29.1691L23.5666 27.6211ZM12.4336 27.6211L15.7756 29.1691L15.7576 28.2061L16.0396 25.9336L12.4336 27.6211Z" fill="#D7C1B3"/>
<path d="M15.828 22.0801L12.855 21.2356L14.9655 20.2891L15.828 22.0801ZM20.172 22.0801L21.051 20.2891L23.163 21.2356L20.172 22.0801Z" fill="#2F343B"/>
<path d="M12.4335 27.6208L12.96 23.4553L9.63599 23.5408L12.4335 27.6208ZM23.0565 23.4553L23.5665 27.6193L26.382 23.5408L23.0565 23.4553ZM25.572 18.8608L19.6275 19.1188L20.172 22.0783L21.051 20.2888L23.163 21.2353L25.572 18.8608ZM12.855 21.2353L14.9655 20.2888L15.828 22.0783L16.3905 19.1188L10.446 18.8608L12.855 21.2353Z" fill="#CC6228"/>
<path d="M10.446 18.8608L12.9255 23.5933L12.855 21.2353L10.446 18.8608ZM23.163 21.2353L23.0745 23.5933L25.572 18.8608L23.163 21.2353ZM16.3905 19.1188L15.828 22.0783L16.5315 25.5883L16.689 20.9773L16.3905 19.1188ZM19.6275 19.1188L19.3275 20.9593L19.4685 25.5898L20.1735 22.0798L19.6275 19.1188Z" fill="#E27625"/>
<path d="M20.172 22.0799L19.4685 25.5899L19.9785 25.9349L23.0745 23.5934L23.163 21.2354L20.172 22.0799ZM12.855 21.2354L12.9255 23.5934L16.0395 25.9334L16.5315 25.5884L15.8265 22.0784L12.855 21.2354Z" fill="#F5841F"/>
<path d="M20.2426 29.1691L20.2786 28.2061L19.9966 27.9811H16.0036L15.7576 28.2061L15.7756 29.1691L12.4336 27.6196L13.5946 28.5496L15.9691 30.1501H20.0311L22.4071 28.5496L23.5666 27.6196L20.2426 29.1691Z" fill="#C0AD9E"/>
<path d="M19.9801 25.9348L19.4701 25.5898H16.5301L16.0396 25.9348L15.7576 28.2058L16.0036 27.9808H19.9966L20.2786 28.2058L19.9801 25.9348Z" fill="#2F343B"/>
<path d="M30.621 13.9381L31.5 9.7381L30.1635 5.8501L19.9785 13.1821L23.901 16.3996L29.442 17.9836L30.657 16.5886L30.1275 16.2106L30.972 15.4696L30.321 14.9716L31.1655 14.3521L30.621 13.9381ZM4.5 9.7396L5.397 13.9396L4.8345 14.3521L5.679 14.9881L5.028 15.4696L5.8725 16.2106L5.3445 16.5886L6.5745 17.9836L12.117 16.3996L16.0395 13.1821L5.835 5.8501L4.5 9.7396Z" fill="#763E1A"/>
<path d="M29.442 17.9833L23.901 16.3993L25.572 18.8593L23.0745 23.5933L26.382 23.5408H31.3065L29.442 17.9833ZM12.117 16.3993L6.57603 17.9833L4.72803 23.5408H9.63603L12.9255 23.5933L10.446 18.8608L12.117 16.3993ZM19.6275 19.1188L19.9785 13.1818L21.579 8.96533H14.421L16.0395 13.1803L16.3905 19.1188L16.5315 20.9773V25.5898H19.4685L19.4865 20.9773L19.6275 19.1188Z" fill="#F5841F"/>
</svg>
