<svg width="26" height="26" viewBox="0 0 26 26" fill="none" xmlns="http://www.w3.org/2000/svg">
<path opacity="0.5" d="M14.0833 16.6832C14.0833 14.4361 14.0833 13.3126 14.7972 12.6146C15.5111 11.9165 16.6602 11.9165 18.9583 11.9165C21.2563 11.9165 22.4054 11.9165 23.1193 12.6146C23.8333 13.3126 23.8333 14.4361 23.8333 16.6832V19.0665C23.8333 21.3135 23.8333 22.437 23.1193 23.1351C22.4054 23.8332 21.2563 23.8332 18.9583 23.8332C16.6602 23.8332 15.5111 23.8332 14.7972 23.1351C14.0833 22.437 14.0833 21.3135 14.0833 19.0665V16.6832Z" fill="#193DB1"/>
<path d="M2.16675 9.3165C2.16675 11.5635 2.16675 12.687 2.88068 13.3851C3.5946 14.0832 4.74365 14.0832 7.04175 14.0832C9.33985 14.0832 10.4889 14.0832 11.2028 13.3851C11.9167 12.687 11.9167 11.5635 11.9167 9.3165V6.93317C11.9167 4.68614 11.9167 3.56263 11.2028 2.86457C10.4889 2.1665 9.33985 2.1665 7.04175 2.1665C4.74365 2.1665 3.5946 2.1665 2.88068 2.86457C2.16675 3.56263 2.16675 4.68614 2.16675 6.93317V9.3165Z" fill="#193DB1"/>
<path d="M14.0833 5.95817C14.0833 4.78037 14.0833 4.19148 14.2688 3.72694C14.5162 3.10757 14.9907 2.61547 15.588 2.35892C16.0359 2.1665 16.6038 2.1665 17.7395 2.1665H20.177C21.3127 2.1665 21.8806 2.1665 22.3285 2.35892C22.9258 2.61547 23.4003 3.10757 23.6477 3.72694C23.8333 4.19148 23.8333 4.78037 23.8333 5.95817C23.8333 7.13597 23.8333 7.72487 23.6477 8.1894C23.4003 8.80877 22.9258 9.30087 22.3285 9.55742C21.8806 9.74984 21.3127 9.74984 20.177 9.74984H17.7395C16.6038 9.74984 16.0359 9.74984 15.588 9.55742C14.9907 9.30087 14.5162 8.80877 14.2688 8.1894C14.0833 7.72487 14.0833 7.13597 14.0833 5.95817Z" fill="#193DB1"/>
<path opacity="0.5" d="M2.16675 20.0417C2.16675 21.2195 2.16675 21.8084 2.35229 22.2729C2.59968 22.8923 3.0742 23.3844 3.67146 23.6409C4.1194 23.8333 4.68727 23.8333 5.823 23.8333H8.2605C9.39623 23.8333 9.9641 23.8333 10.412 23.6409C11.0093 23.3844 11.4838 22.8923 11.7312 22.2729C11.9167 21.8084 11.9167 21.2195 11.9167 20.0417C11.9167 18.8639 11.9167 18.275 11.7312 17.8104C11.4838 17.1911 11.0093 16.699 10.412 16.4424C9.9641 16.25 9.39623 16.25 8.2605 16.25H5.823C4.68727 16.25 4.1194 16.25 3.67146 16.4424C3.0742 16.699 2.59968 17.1911 2.35229 17.8104C2.16675 18.275 2.16675 18.8639 2.16675 20.0417Z" fill="#193DB1"/>
</svg>
