<svg width="14" height="14" viewBox="0 0 14 14" fill="none" xmlns="http://www.w3.org/2000/svg">
<g clip-path="url(#clip0_172_1293)">
<path d="M2.99182 3.08855C2.9165 3.19469 2.9165 3.34502 2.9165 3.64567C2.9165 3.94633 2.9165 4.09665 2.99182 4.2028C3.01839 4.24025 3.05109 4.27295 3.08855 4.29953C3.19469 4.37484 3.34502 4.37484 3.64567 4.37484C3.94633 4.37484 4.09665 4.37484 4.2028 4.29953C4.24025 4.27295 4.27295 4.24025 4.29953 4.2028C4.37484 4.09665 4.37484 3.94633 4.37484 3.64567C4.37484 3.34502 4.37484 3.19469 4.29953 3.08855C4.27295 3.05109 4.24025 3.01839 4.2028 2.99182C4.09665 2.9165 3.94633 2.9165 3.64567 2.9165C3.34502 2.9165 3.19469 2.9165 3.08855 2.99182C3.05109 3.01839 3.01839 3.05109 2.99182 3.08855Z" fill="#5B5B5B"/>
<path fill-rule="evenodd" clip-rule="evenodd" d="M5.07726 0.752459C5.3353 0.776994 5.57578 0.83023 5.79635 0.965395C6.0122 1.09767 6.19368 1.27915 6.32595 1.495C6.46111 1.71556 6.51435 1.95604 6.53888 2.21408C6.56235 2.46091 6.56235 2.76481 6.56234 3.12896L6.56234 3.82183C6.56236 4.34594 6.56237 4.783 6.51572 5.12995C6.46649 5.49616 6.35818 5.8268 6.09249 6.09249C5.8268 6.35818 5.49616 6.46649 5.12995 6.51572C4.783 6.56237 4.34596 6.56236 3.82185 6.56234L3.12901 6.56234C2.76486 6.56235 2.46091 6.56235 2.21408 6.53888C1.95604 6.51435 1.71556 6.46111 1.495 6.32595C1.27915 6.19368 1.09767 6.0122 0.965395 5.79635C0.83023 5.57578 0.776994 5.3353 0.752459 5.07726C0.728989 4.83042 0.728996 4.52651 0.729004 4.16233V4.11954C0.728999 3.56534 0.728994 3.11837 0.763204 2.75858C0.798484 2.38753 0.87321 2.06424 1.05135 1.77354C1.23173 1.4792 1.4792 1.23173 1.77354 1.05135C2.06424 0.87321 2.38753 0.798484 2.75858 0.763204C3.11838 0.728994 3.56533 0.728999 4.11953 0.729004H4.16232C4.5265 0.728996 4.83042 0.728989 5.07726 0.752459ZM4.99444 1.62353C4.79393 1.60447 4.53188 1.604 4.1415 1.604C3.56018 1.604 3.15491 1.60447 2.8414 1.63428C2.5344 1.66347 2.36084 1.71768 2.23073 1.79741C2.05412 1.90564 1.90564 2.05412 1.79741 2.23073C1.71768 2.36084 1.66347 2.5344 1.63428 2.8414C1.60447 3.15491 1.604 3.56018 1.604 4.1415C1.604 4.53188 1.60447 4.79393 1.62353 4.99444C1.64198 5.18843 1.6747 5.27918 1.71145 5.33916C1.77158 5.43727 1.85407 5.51976 1.95218 5.57989C2.01216 5.61664 2.10291 5.64937 2.29691 5.66781C2.49741 5.68688 2.75947 5.68734 3.14984 5.68734H3.7915C4.35384 5.68734 4.73159 5.68641 5.01336 5.64853C5.28255 5.61233 5.39775 5.54979 5.47377 5.47377C5.54979 5.39775 5.61233 5.28255 5.64853 5.01336C5.68641 4.73159 5.68734 4.35384 5.68734 3.7915V3.14984C5.68734 2.75947 5.68688 2.49741 5.66781 2.29691C5.64937 2.10291 5.61664 2.01216 5.57989 1.95218C5.51976 1.85407 5.43727 1.77158 5.33916 1.71145C5.27918 1.6747 5.18843 1.64198 4.99444 1.62353Z" fill="#5B5B5B"/>
<path d="M9.70015 3.08855C9.62484 3.19469 9.62484 3.34502 9.62484 3.64567C9.62484 3.94633 9.62484 4.09665 9.70015 4.2028C9.72673 4.24025 9.75943 4.27295 9.79688 4.29953C9.90302 4.37484 10.0534 4.37484 10.354 4.37484C10.6547 4.37484 10.805 4.37484 10.9111 4.29953C10.9486 4.27295 10.9813 4.24025 11.0079 4.2028C11.0832 4.09665 11.0832 3.94633 11.0832 3.64567C11.0832 3.34502 11.0832 3.19469 11.0079 3.08855C10.9813 3.05109 10.9486 3.01839 10.9111 2.99182C10.805 2.9165 10.6547 2.9165 10.354 2.9165C10.0534 2.9165 9.90302 2.9165 9.79688 2.99182C9.75943 3.01839 9.72673 3.05109 9.70015 3.08855Z" fill="#5B5B5B"/>
<path fill-rule="evenodd" clip-rule="evenodd" d="M9.83735 0.729004H9.88013C10.4343 0.728999 10.8813 0.728994 11.2411 0.763204C11.6122 0.798484 11.9354 0.87321 12.2261 1.05135C12.5205 1.23173 12.7679 1.4792 12.9483 1.77354C13.1265 2.06424 13.2012 2.38753 13.2365 2.75858C13.2707 3.11838 13.2707 3.56533 13.2707 4.11953V4.16233C13.2707 4.5265 13.2707 4.83042 13.2472 5.07726C13.2227 5.3353 13.1694 5.57578 13.0343 5.79635C12.902 6.0122 12.7205 6.19368 12.5047 6.32595C12.2841 6.46111 12.0436 6.51435 11.7856 6.53888C11.5388 6.56235 11.2349 6.56235 10.8708 6.56234L10.1778 6.56234C9.65374 6.56236 9.21668 6.56237 8.86973 6.51572C8.50351 6.46649 8.17288 6.35818 7.90719 6.09249C7.6415 5.8268 7.53319 5.49616 7.48395 5.12995C7.43731 4.783 7.43732 4.34595 7.43734 3.82184V3.12902C7.43733 2.76484 7.43732 2.46093 7.46079 2.21408C7.48533 1.95604 7.53856 1.71556 7.67373 1.495C7.806 1.27915 7.98748 1.09767 8.20333 0.965395C8.4239 0.83023 8.66437 0.776994 8.92242 0.752459C9.16926 0.728989 9.47318 0.728996 9.83735 0.729004ZM9.00524 1.62353C8.81124 1.64198 8.7205 1.6747 8.66052 1.71145C8.5624 1.77158 8.47991 1.85407 8.41979 1.95218C8.38303 2.01216 8.35031 2.10291 8.33186 2.29691C8.3128 2.49741 8.31234 2.75947 8.31234 3.14984V3.7915C8.31234 4.35384 8.31327 4.73159 8.35115 5.01336C8.38734 5.28255 8.44989 5.39775 8.52591 5.47377C8.60192 5.54979 8.71713 5.61233 8.98632 5.64853C9.26809 5.68641 9.64583 5.68734 10.2082 5.68734H10.8498C11.2402 5.68734 11.5023 5.68688 11.7028 5.66781C11.8968 5.64937 11.9875 5.61664 12.0475 5.57989C12.1456 5.51976 12.2281 5.43727 12.2882 5.33916C12.325 5.27918 12.3577 5.18843 12.3761 4.99444C12.3952 4.79393 12.3957 4.53188 12.3957 4.1415C12.3957 3.56018 12.3952 3.15491 12.3654 2.8414C12.3362 2.5344 12.282 2.36084 12.2023 2.23073C12.094 2.05412 11.9456 1.90564 11.769 1.79741C11.6388 1.71768 11.4653 1.66347 11.1583 1.63428C10.8448 1.60447 10.4395 1.604 9.85817 1.604C9.4678 1.604 9.20574 1.60447 9.00524 1.62353Z" fill="#5B5B5B"/>
<path d="M2.9165 10.354C2.9165 10.0534 2.9165 9.90302 2.99182 9.79688C3.01839 9.75943 3.05109 9.72673 3.08855 9.70015C3.19469 9.62484 3.34502 9.62484 3.64567 9.62484C3.94633 9.62484 4.09665 9.62484 4.2028 9.70015C4.24025 9.72673 4.27295 9.75943 4.29953 9.79688C4.37484 9.90302 4.37484 10.0534 4.37484 10.354C4.37484 10.6547 4.37484 10.805 4.29953 10.9111C4.27295 10.9486 4.24025 10.9813 4.2028 11.0079C4.09665 11.0832 3.94633 11.0832 3.64567 11.0832C3.34502 11.0832 3.19469 11.0832 3.08855 11.0079C3.05109 10.9813 3.01839 10.9486 2.99182 10.9111C2.9165 10.805 2.9165 10.6547 2.9165 10.354Z" fill="#5B5B5B"/>
<path fill-rule="evenodd" clip-rule="evenodd" d="M5.12995 7.48395C5.49616 7.53319 5.8268 7.6415 6.09249 7.90719C6.35818 8.17288 6.46649 8.50351 6.51572 8.86973C6.56237 9.21668 6.56236 9.65372 6.56234 10.1778L6.56234 10.8707C6.56235 11.2348 6.56235 11.5388 6.53888 11.7856C6.51435 12.0436 6.46111 12.2841 6.32595 12.5047C6.19368 12.7205 6.0122 12.902 5.79635 13.0343C5.57578 13.1694 5.3353 13.2227 5.07726 13.2472C4.83042 13.2707 4.5265 13.2707 4.16233 13.2707H4.11953C3.56533 13.2707 3.11838 13.2707 2.75858 13.2365C2.38753 13.2012 2.06424 13.1265 1.77354 12.9483C1.4792 12.7679 1.23173 12.5205 1.05135 12.2261C0.87321 11.9354 0.798484 11.6122 0.763204 11.2411C0.728994 10.8813 0.728999 10.4344 0.729004 9.88015V9.83735C0.728996 9.47318 0.728989 9.16926 0.752459 8.92242C0.776994 8.66437 0.83023 8.4239 0.965395 8.20333C1.09767 7.98748 1.27915 7.806 1.495 7.67373C1.71556 7.53856 1.95604 7.48533 2.21408 7.46079C2.46093 7.43732 2.76484 7.43733 3.12902 7.43734H3.82184C4.34595 7.43732 4.783 7.43731 5.12995 7.48395ZM5.01336 8.35115C4.73159 8.31327 4.35384 8.31234 3.7915 8.31234H3.14984C2.75947 8.31234 2.49741 8.3128 2.29691 8.33186C2.10291 8.35031 2.01216 8.38303 1.95218 8.41979C1.85407 8.47991 1.77158 8.5624 1.71145 8.66052C1.6747 8.7205 1.64198 8.81124 1.62353 9.00524C1.60447 9.20574 1.604 9.4678 1.604 9.85817C1.604 10.4395 1.60447 10.8448 1.63428 11.1583C1.66347 11.4653 1.71768 11.6388 1.79741 11.769C1.90564 11.9456 2.05412 12.094 2.23073 12.2023C2.36084 12.282 2.5344 12.3362 2.8414 12.3654C3.15491 12.3952 3.56018 12.3957 4.1415 12.3957C4.53188 12.3957 4.79393 12.3952 4.99444 12.3761C5.18843 12.3577 5.27918 12.325 5.33916 12.2882C5.43727 12.2281 5.51976 12.1456 5.57989 12.0475C5.61664 11.9875 5.64937 11.8968 5.66781 11.7028C5.68688 11.5023 5.68734 11.2402 5.68734 10.8498V10.2082C5.68734 9.64583 5.68641 9.26809 5.64853 8.98632C5.61233 8.71713 5.54979 8.60192 5.47377 8.52591C5.39775 8.44989 5.28255 8.38734 5.01336 8.35115Z" fill="#5B5B5B"/>
<path d="M9.89414 7.43734L11.0832 7.43734V8.31234H9.9165C9.49776 8.31234 9.21664 8.31287 9.00232 8.33467C8.79531 8.35573 8.69966 8.39295 8.6364 8.43522C8.55678 8.48842 8.48842 8.55678 8.43522 8.6364C8.39295 8.69966 8.35573 8.79531 8.33467 9.00232C8.31287 9.21664 8.31234 9.49776 8.31234 9.9165H7.43734L7.43734 9.89414C7.43733 9.50356 7.43732 9.17762 7.46416 8.91377C7.49226 8.63757 7.55334 8.38128 7.70769 8.15028C7.82473 7.97512 7.97512 7.82473 8.15028 7.70769C8.38127 7.55334 8.63757 7.49226 8.91377 7.46416C9.17762 7.43732 9.50356 7.43733 9.89414 7.43734Z" fill="#5B5B5B"/>
<path d="M7.43734 12.8332V11.0832H8.31234V12.8332C8.31234 13.0748 8.11646 13.2707 7.87484 13.2707C7.63321 13.2707 7.43734 13.0748 7.43734 12.8332Z" fill="#5B5B5B"/>
<path d="M13.2707 7.87484C13.2707 7.63321 13.0748 7.43734 12.8332 7.43734C12.5915 7.43734 12.3957 7.63321 12.3957 7.87484V9.9165H13.2707V7.87484Z" fill="#5B5B5B"/>
<path d="M12.3957 11.0832C12.3957 11.361 12.3954 11.5474 12.3856 11.6917C12.376 11.8322 12.3588 11.9005 12.3402 11.9455C12.2662 12.1242 12.1242 12.2662 11.9455 12.3402C11.9005 12.3588 11.8322 12.376 11.6917 12.3856C11.5474 12.3954 11.361 12.3957 11.0832 12.3957H9.9165V13.2707H11.0979C11.3572 13.2707 11.5736 13.2707 11.7513 13.2586C11.9363 13.2459 12.111 13.2187 12.2804 13.1486C12.6735 12.9857 12.9857 12.6735 13.1486 12.2804C13.2187 12.111 13.2459 11.9363 13.2586 11.7513C13.2707 11.5736 13.2707 11.3572 13.2707 11.098V11.0832H12.3957Z" fill="#5B5B5B"/>
<path d="M9.43148 9.59242C9.33317 9.73955 9.33317 9.94437 9.33317 10.354C9.33317 10.7636 9.33317 10.9685 9.43148 11.1156C9.47404 11.1793 9.52873 11.234 9.59242 11.2765C9.73955 11.3748 9.94437 11.3748 10.354 11.3748C10.7636 11.3748 10.9685 11.3748 11.1156 11.2765C11.1793 11.234 11.234 11.1793 11.2765 11.1156C11.3748 10.9685 11.3748 10.7636 11.3748 10.354C11.3748 9.94437 11.3748 9.73955 11.2765 9.59242C11.234 9.52873 11.1793 9.47404 11.1156 9.43148C10.9685 9.33317 10.7636 9.33317 10.354 9.33317C9.94437 9.33317 9.73955 9.33317 9.59242 9.43148C9.52873 9.47404 9.47404 9.52873 9.43148 9.59242Z" fill="#5B5B5B"/>
</g>
<defs>
<clipPath id="clip0_172_1293">
<rect width="14" height="14" rx="5" fill="white"/>
</clipPath>
</defs>
</svg>
