<svg width="37" height="36" viewBox="0 0 37 36" fill="none" xmlns="http://www.w3.org/2000/svg">
<g clip-path="url(#clip0_175_2298)">
<path d="M18.0549 36C27.996 36 36.0549 27.9411 36.0549 18C36.0549 8.05887 27.996 0 18.0549 0C8.11378 0 0.0549011 8.05887 0.0549011 18C0.0549011 27.9411 8.11378 36 18.0549 36Z" fill="#3E73C4"/>
<path d="M22.5798 20.3893C22.5798 17.9998 21.1398 17.1808 18.2598 16.8388C16.2033 16.5654 15.7927 16.0198 15.7927 15.0635C15.7927 14.1073 16.479 13.493 17.8492 13.493C19.0833 13.493 19.7696 13.9025 20.1116 14.9274C20.1472 15.0265 20.2124 15.1123 20.2983 15.1733C20.3842 15.2342 20.4867 15.2674 20.592 15.2683H21.6888C21.7522 15.27 21.8152 15.2588 21.8741 15.2354C21.933 15.212 21.9866 15.1769 22.0315 15.1322C22.0764 15.0875 22.1118 15.0341 22.1354 14.9753C22.1591 14.9165 22.1706 14.8535 22.1692 14.7902V14.7227C22.0352 13.9812 21.66 13.3047 21.102 12.7984C20.5439 12.292 19.8343 11.9841 19.0833 11.9225V10.2845C19.0833 10.0112 18.8775 9.80642 18.5355 9.73779H17.5061C17.2327 9.73779 17.0268 9.94254 16.9582 10.2845V11.855C14.9006 12.1273 13.599 13.493 13.599 15.2008C13.599 17.453 14.9692 18.3407 17.8492 18.6827C19.7696 19.0235 20.3861 19.4342 20.3861 20.5265C20.3861 21.6178 19.4265 22.3693 18.1237 22.3693C16.3406 22.3693 15.7241 21.6189 15.5182 20.594C15.4507 20.3218 15.2437 20.1845 15.0378 20.1845H13.8723C13.8091 20.183 13.7462 20.1943 13.6874 20.2178C13.6286 20.2413 13.5752 20.2764 13.5304 20.3211C13.4856 20.3658 13.4504 20.4191 13.4268 20.4778C13.4032 20.5365 13.3917 20.5994 13.3931 20.6627V20.7302C13.6665 22.4379 14.7645 23.6664 17.0268 24.0084V25.6475C17.0268 25.9198 17.2327 26.1257 17.5747 26.1932H18.6041C18.8775 26.1932 19.0833 25.9884 19.152 25.6475V24.0073C21.2096 23.6664 22.5798 22.232 22.5798 20.3882V20.3893Z" fill="white"/>
<path d="M14.5585 27.5591C9.21023 25.6466 6.46748 19.7066 8.45648 14.4495C9.48473 11.5807 11.7471 9.39713 14.5585 8.37225C14.833 8.23612 14.9691 8.03138 14.9691 7.68938V6.73313C14.9691 6.46088 14.833 6.25613 14.5585 6.1875C14.4899 6.1875 14.3526 6.1875 14.284 6.255C12.741 6.73686 11.3085 7.51919 10.0691 8.55694C8.82966 9.59469 7.80775 10.8674 7.0622 12.3017C6.31666 13.736 5.8622 15.3036 5.72499 16.9143C5.58778 18.525 5.77053 20.1469 6.26273 21.6866C7.49573 25.5116 10.4444 28.4479 14.284 29.6764C14.5585 29.8125 14.833 29.6764 14.9005 29.403C14.9691 29.3355 14.9691 29.2657 14.9691 29.1296V28.1734C14.9691 27.9686 14.7644 27.6964 14.5585 27.5591ZM21.826 6.25612C21.5515 6.11887 21.277 6.25612 21.2095 6.52837C21.1409 6.597 21.1409 6.66563 21.1409 6.80175V7.758C21.1409 8.03137 21.3456 8.30362 21.5515 8.44087C26.8997 10.3534 29.6425 16.2934 27.6535 21.5505C26.6252 24.4193 24.3629 26.6029 21.5515 27.6278C21.277 27.7639 21.1409 27.9686 21.1409 28.3106V29.2669C21.1409 29.5391 21.277 29.7439 21.5515 29.8125C21.6201 29.8125 21.7574 29.8125 21.826 29.745C23.369 29.2631 24.8015 28.4808 26.0409 27.4431C27.2803 26.4053 28.3022 25.1326 29.0478 23.6983C29.7933 22.264 30.2478 20.6964 30.385 19.0857C30.5222 17.475 30.3394 15.8531 29.8472 14.3134C28.6142 10.4209 25.597 7.48462 21.826 6.25612Z" fill="white"/>
</g>
<defs>
<clipPath id="clip0_175_2298">
<rect width="36" height="36" fill="white" transform="translate(0.0549011)"/>
</clipPath>
</defs>
</svg>
