<svg width="37" height="36" viewBox="0 0 37 36" fill="none" xmlns="http://www.w3.org/2000/svg">
<g clip-path="url(#clip0_175_2282)">
<path d="M0.87027 0H36.8703V36H0.87027" fill="#BD3D44"/>
<path d="M0.8703 4.07812H36.8703H0.8703ZM0.8703 9.63281H36.8703H0.8703ZM0.8703 15.1875H36.8703H0.8703ZM0.8703 20.7422H36.8703H0.8703ZM0.8703 26.2969H36.8703H0.8703ZM0.8703 31.8516H36.8703H0.8703Z" fill="black"/>
<path d="M0.8703 4.07812H36.8703M0.8703 9.63281H36.8703M0.8703 15.1875H36.8703M0.8703 20.7422H36.8703M0.8703 26.2969H36.8703M0.8703 31.8516H36.8703" stroke="white" stroke-width="3.88393"/>
<path d="M0.87027 0H28.2921V19.3359H0.87027V0Z" fill="#192F5D"/>
<circle cx="23.2151" cy="4.34489" r="1.24138" fill="white"/>
<circle cx="15.767" cy="4.34489" r="1.24138" fill="white"/>
<circle cx="8.31862" cy="4.34489" r="1.24138" fill="white"/>
<circle cx="23.2151" cy="9.31023" r="1.24138" fill="white"/>
<circle cx="15.767" cy="9.31023" r="1.24138" fill="white"/>
<circle cx="8.31862" cy="9.31023" r="1.24138" fill="white"/>
<circle cx="23.2151" cy="14.276" r="1.24138" fill="white"/>
<circle cx="15.767" cy="14.276" r="1.24138" fill="white"/>
<circle cx="8.31862" cy="14.276" r="1.24138" fill="white"/>
</g>
<defs>
<clipPath id="clip0_175_2282">
<rect width="36" height="36" fill="white" transform="translate(0.87027)"/>
</clipPath>
</defs>
</svg>
