<svg width="56" height="56" viewBox="0 0 56 56" fill="none" xmlns="http://www.w3.org/2000/svg">
<path d="M11.4138 22.4334C11.4138 21.4945 12.1689 20.7334 13.1005 20.7334H22.0965C23.0281 20.7334 23.7832 21.4945 23.7832 22.4334C23.7832 23.3723 23.0281 24.1334 22.0965 24.1334H13.1005C12.1689 24.1334 11.4138 23.3723 11.4138 22.4334Z" fill="#193DB1"/>
<path fill-rule="evenodd" clip-rule="evenodd" d="M49.4397 23.3423C49.2944 23.3334 49.1363 23.3334 48.9723 23.3335L48.9314 23.3335H42.5015C37.2016 23.3335 32.6667 27.3843 32.6667 32.6668C32.6667 37.9493 37.2016 42.0001 42.5015 42.0001H48.9314L48.9723 42.0002C49.1363 42.0002 49.2944 42.0003 49.4397 41.9914C51.5924 41.8594 53.4963 40.2236 53.6564 37.9388C53.6669 37.789 53.6668 37.6275 53.6667 37.4778L53.6666 37.4372V27.8965L53.6667 27.8558C53.6668 27.7062 53.6669 27.5447 53.6564 27.3948C53.4963 25.1101 51.5924 23.4743 49.4397 23.3423ZM41.9314 35.1557C43.2958 35.1557 44.402 34.0414 44.402 32.6668C44.402 31.2922 43.2958 30.1779 41.9314 30.1779C40.5669 30.1779 39.4608 31.2922 39.4608 32.6668C39.4608 34.0414 40.5669 35.1557 41.9314 35.1557Z" fill="#193DB1"/>
<path opacity="0.5" d="M49.3253 23.3367C49.3253 20.582 49.2251 17.6269 47.4642 15.5085C47.2942 15.304 47.1132 15.1055 46.9205 14.9127C45.1743 13.1666 42.9601 12.3916 40.2244 12.0238C37.5663 11.6664 34.1698 11.6665 29.8817 11.6665H24.9517C20.6636 11.6665 17.2671 11.6664 14.609 12.0238C11.8733 12.3916 9.6591 13.1666 7.91292 14.9127C6.16674 16.6589 5.3918 18.8731 5.024 21.6088C4.66662 24.2669 4.66665 27.6634 4.66669 31.9515V32.2148C4.66665 36.5029 4.66662 39.8994 5.024 42.5576C5.3918 45.2932 6.16674 47.5074 7.91292 49.2536C9.6591 50.9998 11.8733 51.7747 14.609 52.1425C17.2671 52.4999 20.6636 52.4999 24.9516 52.4998H29.8816C34.1697 52.4999 37.5663 52.4999 40.2244 52.1425C42.9601 51.7747 45.1743 50.9998 46.9205 49.2536C47.3977 48.7764 47.8029 48.2634 48.1474 47.7132C49.1985 46.0344 49.3253 43.9769 49.3253 41.9963C49.2128 41.9999 49.0942 41.9999 48.9724 41.9998L42.5015 41.9998C37.2016 41.9998 32.6667 37.949 32.6667 32.6665C32.6667 27.384 37.2016 23.3332 42.5015 23.3332L48.9723 23.3332C49.0941 23.3331 49.2128 23.3331 49.3253 23.3367Z" fill="#193DB1"/>
<path d="M23.5701 6.00143L18.6667 9.31574L14.6224 12.022C17.2785 11.6664 20.6708 11.6665 24.9517 11.6665H29.8817C34.1698 11.6665 37.5663 11.6664 40.2244 12.0238C40.7591 12.0957 41.2739 12.1831 41.7691 12.2904L37.3334 9.33317L32.4042 6.00143C29.7709 4.22153 26.2034 4.22153 23.5701 6.00143Z" fill="#193DB1"/>
</svg>
